<?xml version="1.0" encoding="UTF-8"?>
<!DOCTYPE svg PUBLIC "-//W3C//DTD SVG 1.1//EN" "http://www.w3.org/Graphics/SVG/1.1/DTD/svg11.dtd">
<svg xmlns="http://www.w3.org/2000/svg" version="1.1" width="512px" height="512px" style="shape-rendering:geometricPrecision; text-rendering:geometricPrecision; image-rendering:optimizeQuality; fill-rule:evenodd; clip-rule:evenodd" xmlns:xlink="http://www.w3.org/1999/xlink">
<g><path style="opacity:1" fill="#212121" d="M -0.5,-0.5 C 170.167,-0.5 340.833,-0.5 511.5,-0.5C 511.5,170.167 511.5,340.833 511.5,511.5C 340.833,511.5 170.167,511.5 -0.5,511.5C -0.5,340.833 -0.5,170.167 -0.5,-0.5 Z"/></g>
<g><path style="opacity:1" fill="#fdfcfc" d="M 268.5,137.5 C 268.427,139.027 269.094,140.027 270.5,140.5C 279.772,158.71 288.772,177.044 297.5,195.5C 297.427,197.027 298.094,198.027 299.5,198.5C 310.092,219.35 320.425,240.35 330.5,261.5C 330.427,263.027 331.094,264.027 332.5,264.5C 343.105,285.377 353.439,306.377 363.5,327.5C 363.427,329.027 364.094,330.027 365.5,330.5C 370.411,340.028 375.245,349.694 380,359.5C 382.343,368.976 379.177,375.81 370.5,380C 319.833,380.667 269.167,380.667 218.5,380C 213.09,376.683 210.09,371.85 209.5,365.5C 209.5,364.167 209.5,362.833 209.5,361.5C 211.685,355.317 216.018,351.65 222.5,350.5C 261.833,350.5 301.167,350.5 340.5,350.5C 340.598,348.447 339.931,346.78 338.5,345.5C 311.131,290.429 283.464,235.429 255.5,180.5C 224.728,240.941 194.395,301.608 164.5,362.5C 163.599,363.29 162.932,364.29 162.5,365.5C 161.013,368.473 159.513,371.473 158,374.5C 156.143,377.2 153.643,378.866 150.5,379.5C 146.131,379.533 141.798,379.2 137.5,378.5C 134.063,376.977 132.063,374.311 131.5,370.5C 131.467,366.131 131.8,361.798 132.5,357.5C 136.269,348.171 140.603,339.171 145.5,330.5C 146.906,330.027 147.573,329.027 147.5,327.5C 157.593,306.315 167.926,285.315 178.5,264.5C 179.906,264.027 180.573,263.027 180.5,261.5C 190.577,240.346 200.911,219.346 211.5,198.5C 212.906,198.027 213.573,197.027 213.5,195.5C 222.228,177.044 231.228,158.71 240.5,140.5C 241.906,140.027 242.573,139.027 242.5,137.5C 251.144,126.974 259.81,126.974 268.5,137.5 Z"/></g>
<g><path style="opacity:1" fill="#848484" d="M 242.5,137.5 C 242.573,139.027 241.906,140.027 240.5,140.5C 240.427,138.973 241.094,137.973 242.5,137.5 Z"/></g>
<g><path style="opacity:1" fill="#848484" d="M 268.5,137.5 C 269.906,137.973 270.573,138.973 270.5,140.5C 269.094,140.027 268.427,139.027 268.5,137.5 Z"/></g>
<g><path style="opacity:1" fill="#ffa003" d="M 338.5,345.5 C 338.5,346.833 338.5,348.167 338.5,349.5C 299.663,349.168 260.996,349.501 222.5,350.5C 216.018,351.65 211.685,355.317 209.5,361.5C 208.596,362.209 208.263,363.209 208.5,364.5C 193.462,365.15 178.795,364.483 164.5,362.5C 194.395,301.608 224.728,240.941 255.5,180.5C 283.464,235.429 311.131,290.429 338.5,345.5 Z"/></g>
<g><path style="opacity:1" fill="#7f7f7f" d="M 213.5,195.5 C 213.573,197.027 212.906,198.027 211.5,198.5C 211.427,196.973 212.094,195.973 213.5,195.5 Z"/></g>
<g><path style="opacity:1" fill="#7e7e7e" d="M 297.5,195.5 C 298.906,195.973 299.573,196.973 299.5,198.5C 298.094,198.027 297.427,197.027 297.5,195.5 Z"/></g>
<g><path style="opacity:1" fill="#848484" d="M 180.5,261.5 C 180.573,263.027 179.906,264.027 178.5,264.5C 178.427,262.973 179.094,261.973 180.5,261.5 Z"/></g>
<g><path style="opacity:1" fill="#7f7f7f" d="M 330.5,261.5 C 331.906,261.973 332.573,262.973 332.5,264.5C 331.094,264.027 330.427,263.027 330.5,261.5 Z"/></g>
<g><path style="opacity:1" fill="#858585" d="M 147.5,327.5 C 147.573,329.027 146.906,330.027 145.5,330.5C 145.427,328.973 146.094,327.973 147.5,327.5 Z"/></g>
<g><path style="opacity:1" fill="#848484" d="M 363.5,327.5 C 364.906,327.973 365.573,328.973 365.5,330.5C 364.094,330.027 363.427,329.027 363.5,327.5 Z"/></g>
<g><path style="opacity:1" fill="#ffc158" d="M 338.5,345.5 C 339.931,346.78 340.598,348.447 340.5,350.5C 301.167,350.5 261.833,350.5 222.5,350.5C 260.996,349.501 299.663,349.168 338.5,349.5C 338.5,348.167 338.5,346.833 338.5,345.5 Z"/></g>
<g><path style="opacity:1" fill="#c3c3c3" d="M 132.5,357.5 C 131.8,361.798 131.467,366.131 131.5,370.5C 128.645,365.95 128.979,361.616 132.5,357.5 Z"/></g>
<g><path style="opacity:1" fill="#dc8e12" d="M 209.5,361.5 C 209.5,362.833 209.5,364.167 209.5,365.5C 193.833,365.5 178.167,365.5 162.5,365.5C 162.932,364.29 163.599,363.29 164.5,362.5C 178.795,364.483 193.462,365.15 208.5,364.5C 208.263,363.209 208.596,362.209 209.5,361.5 Z"/></g>
<g><path style="opacity:1" fill="#c5c5c5" d="M 137.5,378.5 C 141.798,379.2 146.131,379.533 150.5,379.5C 145.95,382.355 141.616,382.021 137.5,378.5 Z"/></g>
</svg>
